<?xml version="1.0" encoding="UTF-8"?>
<svg width="512" height="512" viewBox="0 0 512 512" fill="none" xmlns="http://www.w3.org/2000/svg">
  <!-- Background Circle -->
  <circle cx="256" cy="256" r="256" fill="#1E293B"/>
  
  <!-- Dumbbell Design -->
  <g transform="translate(96, 206)">
    <!-- Left Weight -->
    <rect x="0" y="20" width="40" height="60" rx="8" fill="#FF4B4B"/>
    
    <!-- Left Bar -->
    <rect x="40" y="40" width="80" height="20" fill="#3B82F6"/>
    
    <!-- Center Grip -->
    <rect x="120" y="35" width="80" height="30" rx="4" fill="#3B82F6"/>
    
    <!-- Right Bar -->
    <rect x="200" y="40" width="80" height="20" fill="#3B82F6"/>
    
    <!-- Right Weight -->
    <rect x="280" y="20" width="40" height="60" rx="8" fill="#FF4B4B"/>
  </g>
  
  <!-- Shine Effect -->
  <path d="M256 0C114.6 0 0 114.6 0 256c0 48.4 13.4 93.6 36.7 132.1C79.8 460.9 161.1 512 256 512c94.9 0 176.2-51.1 219.3-123.9C498.6 349.6 512 304.4 512 256 512 114.6 397.4 0 256 0zm0 456c-110.3 0-200-89.7-200-200S145.7 56 256 56s200 89.7 200 200-89.7 200-200 200z" fill="#FF4B4B" fillOpacity="0.1"/>
</svg>
